<?xml version="1.0" encoding="utf-8"?>
<!-- Generator: Adobe Illustrator 26.0.3, SVG Export Plug-In . SVG Version: 6.00 Build 0)  -->
<svg version="1.0" id="katman_1" xmlns="http://www.w3.org/2000/svg" xmlns:xlink="http://www.w3.org/1999/xlink" x="0px" y="0px"
	 viewBox="0 0 600 450" style="enable-background:new 0 0 600 450;" xml:space="preserve">
<path d="M513.3,369.3c0,9.4,4.4,14,14.2,14c8.9,0,13.8-4.8,13.8-12.9s-2.8-11.7-10.3-14.1l-3.9-1.2c-4.5-1.4-6.1-3-6.1-7.4
	c0-3.8,1.9-5.6,6-5.6c4.8,0,6.4,2.1,6.4,6.9h6.9c0-9.1-4.5-13.1-13.6-13.1c-8.6,0-12.9,5-12.9,12.1c0,7.6,3.2,11.1,10.5,13.3
	l4.1,1.3c3.7,0.7,6.2,4.2,5.7,7.9c0,4.2-1.9,6.4-6.9,6.4s-7.2-2.6-7.3-7.9L513.3,369.3z M482.3,382.7H506v-6.4h-16.8v-14.1h14.3
	v-6.2h-14.3v-12.9h16.1v-6.4h-23V382.7z M450.8,382.7h22.5v-6.4h-15.6v-39.6h-6.9L450.8,382.7z M431.3,382.7h6.9v-45.8h-6.9V382.7z
	 M407.8,362.3c3.8,0,5.8,2.7,5.8,7.6c0,4.9-2.1,6.8-6,6.8h-7.3v-14.4H407.8z M407.2,343c3.5,0,5.6,2.5,5.6,6.8
	c0,4.3-1.8,6.7-5.2,6.7h-7.2V343H407.2z M393.4,382.7H408c8.1,0,12.5-4.5,12.5-12.5c0-5.7-2.1-9.6-6.4-10.9
	c3.7-1.7,5.2-5.7,5.2-10.5c0-7.7-4.2-11.8-11.8-11.8h-14.2V382.7z M367.2,342.5c5.1,0,7.9,3,7.9,8.4v17.7c0,5.5-2.8,8.5-7.9,8.5
	c-5.1,0-7.9-3-7.9-8.5v-17.8c0-5.5,2.8-8.4,7.9-8.4 M367.2,335.9c-9.3,0-14.8,5.6-14.8,15v17.4c0,8.2,6.6,14.8,14.8,14.7
	c8.1,0,14.7-6.6,14.7-14.7v-17.4C382,341.5,376.5,335.9,367.2,335.9 M305.5,382.4h6.4v-34.6l8.5,22.3h5.9l8.3-22.1v34.8h6.4v-46H333
	l-9.6,26l-9.6-26h-8.4L305.5,382.4z M279.3,342.2c5.1,0,7.9,3,7.9,8.4v17.7c0,5.5-2.8,8.5-7.9,8.5c-5.1,0-7.9-3-7.9-8.5v-17.6
	c0-5.5,2.8-8.4,7.9-8.4 M279.3,335.9c-9.3,0-14.8,5.6-14.8,15v17.4c0.4,8.2,7.3,14.5,15.5,14.1c7.6-0.4,13.7-6.5,14.1-14.1v-17.4
	C294.1,341.5,288.6,335.9,279.3,335.9 M239.3,382.4h6.9v-39.3h11.3v-6.2h-29.4v6.2h11.2V382.4z M219.4,368.7v-32.2h-6.9v32.6
	c0,5.6-2.5,7.6-7.1,7.6s-7.2-2.1-7.2-7.6v-32.3h-6.9V369c0,9.2,4.8,14.3,14.1,14.3s14-5.2,14-14.3 M160.9,364.1l5-21.4l5,21.4H160.9
	z M175.3,382.7h7.1l-11.4-45.8h-10l-11.2,45.8h6.8l3-12.6h12.9L175.3,382.7z M95.6,369.3c0,9.4,4.4,14,14.2,14
	c8.9,0,13.8-4.8,13.8-12.9s-2.8-11.7-10.3-14.1l-3.9-1.2c-4.4-1.4-6.1-3-6.1-7.4c0-3.8,1.9-5.6,6-5.6c4.8,0,6.4,2.1,6.4,6.9h6.9
	c0-9.1-4.5-13.1-13.6-13.1c-8.6,0-12.9,5-12.9,12.1c0,7.6,3.2,11.1,10.5,13.3l4.1,1.3c3.8,0.5,6.5,4,6,7.8c0,0.1,0,0.1,0,0.2
	c0,4.2-1.9,6.4-6.9,6.4s-7.2-2.6-7.3-7.9L95.6,369.3z M71.8,343c4.1-0.4,7.7,2.6,8.1,6.7c0.1,0.6,0,1.2,0,1.7v16.6
	c0.6,4-2.2,7.8-6.3,8.4c-0.6,0.1-1.2,0.1-1.7,0h-6.1V343H71.8z M58.9,382.7H72c9.3,0,14.8-5.4,14.8-14.5v-16.6
	c0.7-7.4-4.8-14-12.2-14.7c-0.8-0.1-1.7-0.1-2.5,0H58.9V382.7z"/>
<g>
	<path d="M394.2,220.1c-4.7-4.5-21.1-20.1-33.3-37.5l-0.3-0.5l0.1,0.1c-5.1-7.3-9.4-14.9-11.8-22.2c-1.6-4.8-2.5-9.9-2.6-15
		c0.1-4.3,0.9-8.6,2.6-12.6c1.5-3.9,3.8-7.9,6.5-11.9l0-0.1c4-5.7,8.9-11.3,13.9-16.4c3.6-3.7,19.1-18.8,24.2-23.8
		c1.1-1.2,1.9-2.6,2.3-4.2c0.3-1.9,0.4-3.9,0.4-5.8v-2.9l-92.6,72.2c-1.5,1-2.6,2.4-3.2,4c-0.6-1.6-1.7-3-3.1-4l-92.6-72.2v155.2
		l92.7-72.2c1.5-1,2.6-2.4,3.2-4c0.4,1.2,1,2.3,2,3.2c6.7,6.4,37.2,35.4,45.4,60.1c1.7,4.8,2.6,9.9,2.6,15c0,4.3-0.9,8.5-2.6,12.4
		c-3.7,9.4-12,19.3-20.4,28c-3.6,3.7-19.3,18.7-24.2,23.7c-1.1,1.1-1.9,2.6-2.3,4.1c-0.3,2.1-0.4,4.3-0.4,6.4v2.9l92.6-72.2
		c1.8-1.2,3-3.2,3.2-5.4C396.4,222.9,395.6,221.2,394.2,220.1z M225.5,201.7c-7.2,5.6-12.6,10-16.4,12.9c-0.3,0.3-0.3-0.5-0.3-1
		s0-1.1,0.2-1.4c7.9-7.1,39.1-30.9,48.2-53.6c3.9-8.7,3.9-18.7,0-27.5c-9-22.7-40.2-46.5-48.2-53.6c-0.2-0.2-0.2-1.1-0.2-1.4
		c0-0.3,0-1.2,0.4-0.9c3.8,2.9,9.1,7.3,16.3,12.9c7.7,6,14.9,12.5,21.7,19.5c11.4,11.8,20.2,24.6,20.2,37.2
		c0,12.7-8.7,25.5-20.2,37.2C240.4,189.1,233.2,195.7,225.5,201.7z M294.7,149.1c-9.3,6.4-23.3,18.1-41.8,32.7
		c-0.4,0.3-0.3-0.8-0.2-1.2c0.1-0.6,0.3-1.1,0.5-1.6c6.7-6.9,12.4-14.6,16.9-23c3.2-6,3.9-10,9.6-10h15.9
		C298.1,146,295.8,148.2,294.7,149.1z M354.8,113.9c-4.5,5.6-8.2,11.5-10.5,17.2c-3.9,8.8-3.9,18.9,0,27.7c3,7.5,6.9,14.7,11.6,21.3
		c2.1,2.8,3,4,4.4,5.9c0.3,0.5,0.6,1,0.8,1.6l0.2,1.8c-0.5-0.3-0.9-0.7-1.4-1.1c-1.5-1.4-3.5-3.2-5.9-5.8
		c-11.6-11.6-19.9-25.1-19.9-37.6s8.7-25.2,20.2-36.9c6.8-6.9,14.1-13.3,21.7-19.3c2.9-2.3,5.4-4.3,7.8-6.1l3.5-2.6
		c0.2-0.2,0.3,0.2,0.2,0.3c0.1,0.8-0.1,1.5-0.6,2.1c-0.8,0.8-1.6,1.5-2.4,2.2C375.9,91.7,363.9,102.4,354.8,113.9 M306.3,149.1
		c-1.1-0.9-3.5-3.2-1.1-3.2h15.4c5.9,0,8.1,5.9,11.2,11.9c4.8,8,10.4,15.5,16.8,22.2c0.6,0.8,1,1.8,1.2,2.8c0.2,0.6,0,0.8-0.6,0.3
		C330.1,169.2,309.8,152,306.3,149.1z M327.2,272.1c-0.9,0.8-1.6,1.3-1.5,0.7c0-0.6,0-1.9,0.5-2.4c11.2-11,22.3-23.3,26.3-33
		c1.8-4.1,2.8-8.4,2.9-12.9c0-4.8-0.8-9.5-2.4-14c-3.7-10.5-11.9-21.9-20.4-31.8c-2.1-2.5-3.9-4.6-4.6-5.4c-0.2-0.3-0.2-0.5,0-0.5
		c0.6,0,1.2,0.3,1.7,0.7c0.2,0.2,2.6,2.7,3.9,4.1c2.7,2.8,5.3,6,8.1,9.2c10.1,11.9,19,25,19,37.8c0,11.7-8.3,23.3-19.3,34.1
		C338.9,261.4,333.8,266.3,327.2,272.1z M390.2,229c-10.5,7.4-26.3,20.3-47.4,37c-0.6,0.5-0.5-0.9-0.5-1.3c0-0.5,0.1-1,0.4-1.4
		c7.7-7.9,14.2-16.7,19.5-26.4c3.6-6.8,4.5-11.4,11.1-11.4h18C394,225.6,391.4,228.2,390.2,229z"/>
</g>
</svg>
